<mxfile host="app.diagrams.net" modified="2021-11-04T12:58:17.648Z" agent="5.0 (Windows NT 10.0; Win64; x64) AppleWebKit/537.36 (KHTML, like Gecko) Chrome/95.0.4638.54 Safari/537.36 Edg/95.0.1020.40" etag="69UCw-OJKZVA5Tbo32vk" version="15.6.8" type="github">
  <diagram id="5CuxCso80JFppYoZznwl" name="Page-1">
    <mxGraphModel dx="1422" dy="794" grid="1" gridSize="10" guides="1" tooltips="1" connect="1" arrows="1" fold="1" page="1" pageScale="1" pageWidth="827" pageHeight="1169" math="0" shadow="0">
      <root>
        <mxCell id="0" />
        <mxCell id="1" parent="0" />
        <mxCell id="V30cIPAeZGkP9p71ClTh-1" value="" style="rounded=0;whiteSpace=wrap;html=1;" parent="1" vertex="1">
          <mxGeometry x="80" y="80" width="560" height="760" as="geometry" />
        </mxCell>
        <mxCell id="V30cIPAeZGkP9p71ClTh-2" value="User" style="shape=umlActor;verticalLabelPosition=bottom;verticalAlign=top;html=1;outlineConnect=0;" parent="1" vertex="1">
          <mxGeometry x="20" y="80" width="30" height="60" as="geometry" />
        </mxCell>
        <mxCell id="V30cIPAeZGkP9p71ClTh-3" value="System settings" style="ellipse;whiteSpace=wrap;html=1;" parent="1" vertex="1">
          <mxGeometry x="110" y="90" width="120" height="80" as="geometry" />
        </mxCell>
        <mxCell id="V30cIPAeZGkP9p71ClTh-4" value="Authentication" style="ellipse;whiteSpace=wrap;html=1;" parent="1" vertex="1">
          <mxGeometry x="110" y="180" width="120" height="80" as="geometry" />
        </mxCell>
        <mxCell id="V30cIPAeZGkP9p71ClTh-5" value="Multi factor authentication" style="ellipse;whiteSpace=wrap;html=1;" parent="1" vertex="1">
          <mxGeometry x="110" y="270" width="120" height="80" as="geometry" />
        </mxCell>
        <mxCell id="V30cIPAeZGkP9p71ClTh-7" value="Admin" style="shape=umlActor;verticalLabelPosition=bottom;verticalAlign=top;html=1;outlineConnect=0;" parent="1" vertex="1">
          <mxGeometry x="20" y="180" width="30" height="60" as="geometry" />
        </mxCell>
        <mxCell id="V30cIPAeZGkP9p71ClTh-16" style="rounded=0;orthogonalLoop=1;jettySize=auto;html=1;entryX=1;entryY=0.5;entryDx=0;entryDy=0;" parent="1" source="V30cIPAeZGkP9p71ClTh-8" target="V30cIPAeZGkP9p71ClTh-11" edge="1">
          <mxGeometry relative="1" as="geometry" />
        </mxCell>
        <mxCell id="V30cIPAeZGkP9p71ClTh-17" style="edgeStyle=none;rounded=0;orthogonalLoop=1;jettySize=auto;html=1;entryX=1;entryY=0.5;entryDx=0;entryDy=0;" parent="1" source="V30cIPAeZGkP9p71ClTh-8" target="V30cIPAeZGkP9p71ClTh-12" edge="1">
          <mxGeometry relative="1" as="geometry" />
        </mxCell>
        <mxCell id="V30cIPAeZGkP9p71ClTh-18" style="edgeStyle=none;rounded=0;orthogonalLoop=1;jettySize=auto;html=1;entryX=1;entryY=0.5;entryDx=0;entryDy=0;" parent="1" source="V30cIPAeZGkP9p71ClTh-8" target="V30cIPAeZGkP9p71ClTh-13" edge="1">
          <mxGeometry relative="1" as="geometry" />
        </mxCell>
        <mxCell id="V30cIPAeZGkP9p71ClTh-19" style="edgeStyle=none;rounded=0;orthogonalLoop=1;jettySize=auto;html=1;entryX=1;entryY=0.5;entryDx=0;entryDy=0;" parent="1" source="V30cIPAeZGkP9p71ClTh-8" target="V30cIPAeZGkP9p71ClTh-14" edge="1">
          <mxGeometry relative="1" as="geometry" />
        </mxCell>
        <mxCell id="V30cIPAeZGkP9p71ClTh-22" style="edgeStyle=none;rounded=0;orthogonalLoop=1;jettySize=auto;html=1;entryX=1;entryY=0.5;entryDx=0;entryDy=0;" parent="1" source="V30cIPAeZGkP9p71ClTh-8" target="V30cIPAeZGkP9p71ClTh-15" edge="1">
          <mxGeometry relative="1" as="geometry" />
        </mxCell>
        <mxCell id="V30cIPAeZGkP9p71ClTh-8" value="System" style="shape=umlActor;verticalLabelPosition=bottom;verticalAlign=top;html=1;outlineConnect=0;" parent="1" vertex="1">
          <mxGeometry x="680" y="310" width="30" height="60" as="geometry" />
        </mxCell>
        <mxCell id="V30cIPAeZGkP9p71ClTh-11" value="Monitor ambient humidity" style="ellipse;whiteSpace=wrap;html=1;" parent="1" vertex="1">
          <mxGeometry x="460" y="90" width="120" height="80" as="geometry" />
        </mxCell>
        <mxCell id="V30cIPAeZGkP9p71ClTh-12" value="Monitor noise level" style="ellipse;whiteSpace=wrap;html=1;" parent="1" vertex="1">
          <mxGeometry x="460" y="190" width="120" height="80" as="geometry" />
        </mxCell>
        <mxCell id="V30cIPAeZGkP9p71ClTh-13" value="Monitor temperature" style="ellipse;whiteSpace=wrap;html=1;" parent="1" vertex="1">
          <mxGeometry x="460" y="300" width="120" height="80" as="geometry" />
        </mxCell>
        <mxCell id="V30cIPAeZGkP9p71ClTh-15" value="Monitor power consumption" style="ellipse;whiteSpace=wrap;html=1;" parent="1" vertex="1">
          <mxGeometry x="460" y="520" width="120" height="80" as="geometry" />
        </mxCell>
        <mxCell id="V30cIPAeZGkP9p71ClTh-14" value="Monitor air quality" style="ellipse;whiteSpace=wrap;html=1;" parent="1" vertex="1">
          <mxGeometry x="460" y="410" width="120" height="80" as="geometry" />
        </mxCell>
        <mxCell id="V30cIPAeZGkP9p71ClTh-21" value="" style="edgeStyle=none;rounded=0;orthogonalLoop=1;jettySize=auto;html=1;entryX=1;entryY=0.5;entryDx=0;entryDy=0;endArrow=none;" parent="1" source="V30cIPAeZGkP9p71ClTh-8" target="V30cIPAeZGkP9p71ClTh-14" edge="1">
          <mxGeometry relative="1" as="geometry">
            <mxPoint x="680" y="351.74377224199293" as="sourcePoint" />
            <mxPoint x="414" y="560" as="targetPoint" />
          </mxGeometry>
        </mxCell>
        <mxCell id="V30cIPAeZGkP9p71ClTh-23" value="Optimize ambience variables" style="ellipse;whiteSpace=wrap;html=1;" parent="1" vertex="1">
          <mxGeometry x="320" y="90" width="120" height="80" as="geometry" />
        </mxCell>
      </root>
    </mxGraphModel>
  </diagram>
</mxfile>
